<svg viewBox="0 0 411 192" fill="none" xmlns="http://www.w3.org/2000/svg">
<mask id="path-1-inside-1_447_165" fill="white">
<path fill-rule="evenodd" clip-rule="evenodd" d="M8 0H124.849C125.783 0 126.581 0.651016 126.869 1.53982C129.205 8.77031 135.992 14 144 14C152.008 14 158.795 8.77031 161.131 1.53982C161.419 0.651014 162.217 0 163.151 0H403C407.418 0 411 3.58172 411 8V184C411 188.418 407.418 192 403 192H163.151C162.217 192 161.419 191.349 161.131 190.46C158.795 183.23 152.008 178 144 178C135.992 178 129.205 183.23 126.869 190.46C126.581 191.349 125.783 192 124.849 192H8C3.58173 192 0 188.418 0 184V8C0 3.58173 3.58172 0 8 0Z"/>
</mask>
<path fill-rule="evenodd" clip-rule="evenodd" d="M8 0H124.849C125.783 0 126.581 0.651016 126.869 1.53982C129.205 8.77031 135.992 14 144 14C152.008 14 158.795 8.77031 161.131 1.53982C161.419 0.651014 162.217 0 163.151 0H403C407.418 0 411 3.58172 411 8V184C411 188.418 407.418 192 403 192H163.151C162.217 192 161.419 191.349 161.131 190.46C158.795 183.23 152.008 178 144 178C135.992 178 129.205 183.23 126.869 190.46C126.581 191.349 125.783 192 124.849 192H8C3.58173 192 0 188.418 0 184V8C0 3.58173 3.58172 0 8 0Z" fill="white"/>
<path d="M161.131 190.46L160.18 190.768L161.131 190.46ZM161.131 1.53982L162.083 1.8473L161.131 1.53982ZM126.869 190.46L127.82 190.768L126.869 190.46ZM126.869 1.53982L127.82 1.23234L126.869 1.53982ZM124.849 -1H8V1H124.849V-1ZM144 13C136.438 13 130.027 8.06215 127.82 1.23234L125.917 1.8473C128.383 9.47847 135.545 15 144 15V13ZM160.18 1.23234C157.973 8.06215 151.562 13 144 13V15C152.455 15 159.617 9.47847 162.083 1.8473L160.18 1.23234ZM403 -1H163.151V1H403V-1ZM412 8C412 3.02944 407.971 -1 403 -1V1C406.866 1 410 4.13401 410 8H412ZM412 184V8H410V184H412ZM403 193C407.971 193 412 188.971 412 184H410C410 187.866 406.866 191 403 191V193ZM163.151 193H403V191H163.151V193ZM144 179C151.562 179 157.973 183.938 160.18 190.768L162.083 190.153C159.617 182.522 152.455 177 144 177V179ZM127.82 190.768C130.027 183.938 136.438 179 144 179V177C135.545 177 128.383 182.522 125.917 190.153L127.82 190.768ZM8 193H124.849V191H8V193ZM-1 184C-1 188.971 3.02944 193 8 193V191C4.13401 191 1 187.866 1 184H-1ZM-1 8V184H1V8H-1ZM8 -1C3.02944 -1 -1 3.02944 -1 8H1C1 4.13401 4.13401 1 8 1V-1ZM163.151 191C162.702 191 162.253 190.68 162.083 190.153L160.18 190.768C160.584 192.018 161.732 193 163.151 193V191ZM162.083 1.8473C162.253 1.32044 162.702 1 163.151 1V-1C161.732 -1 160.584 -0.0184109 160.18 1.23234L162.083 1.8473ZM125.917 190.153C125.747 190.68 125.298 191 124.849 191V193C126.268 193 127.416 192.018 127.82 190.768L125.917 190.153ZM124.849 1C125.298 1 125.747 1.32044 125.917 1.8473L127.82 1.23234C127.416 -0.0184094 126.268 -1 124.849 -1V1Z" fill="#E8D6CC" mask="url(#path-1-inside-1_447_165)"/>
</svg>
